<svg id="圖層_1" data-name="圖層 1" xmlns="http://www.w3.org/2000/svg" viewBox="0 0 2535.03 439.44"><defs><style>.cls-1{fill:#5b5c60;}.cls-2{fill:#de7977;}</style></defs><path class="cls-1" d="M12.94,226c0-26.25,0-52.79-.59-78.33H82.76c1,8,2.6,26.77,2.84,39.77,14.9-24.17,40-46.86,85.77-46.86,43.45,0,69.33,22.35,80.32,49,17.27-26.18,44.34-49,94.7-49,51.73,0,96.12,31.4,96.12,111.49V451.57H370.68V261.05c0-30.08-10.87-60.38-49.68-60.38-40.35,0-56.83,27.87-56.83,76.92v174H192.11V263.71c0-34-8.86-62.63-48.74-62.63-39.11,0-57.77,27.22-57.77,81.3V451.57H12.94Z" transform="translate(-12.35 -19.22)"/><path class="cls-1" d="M751.08,377.17c0,28.5,2.37,66.59,4.14,74.4H685c-2.36-6.27-4.14-21.76-4.49-33.09-10.88,18.14-32.74,40.18-88.24,40.18-72.72,0-103.52-47.65-103.52-94.47,0-68.76,54.81-100.38,144.31-100.38h46.21v-21c0-23.34-8-48.45-53-48.45-40.64,0-48.68,18.49-53.11,41.07H502.93c4.38-49.92,35.25-95.19,125.94-94.78,79,.42,122.21,31.69,122.21,102.93ZM679.43,310H640.15c-54,0-77.39,15.89-77.39,49.74,0,25.22,16.24,45.26,48.91,45.26,60.08,0,67.76-41.24,67.76-86.44Z" transform="translate(-12.35 -19.22)"/><path class="cls-1" d="M820.42,230.18c0-34.32-.18-60.16-.59-82.47h72.06c1,7.39,2,35.42,2,56.26,14.24-36.87,47.93-62.64,99.13-63.35V211.5c-61.48-.42-99.13,21.42-99.13,102.54V451.57H820.42Z" transform="translate(-12.35 -19.22)"/><path class="cls-1" d="M1291.07,363.19c0,29.38.18,64.3.59,88.38h-71.88c-1.19-8.1-1.78-25.12-2.19-38.59-17,31.56-44.64,45.68-86.47,45.68-58.31,0-101.09-33.54-101.09-112.38V147.71h73.31v183.6c0,35.69,11.11,66.47,52.22,66.47,44.25,0,62-24,62-89.44V147.71h73.48Z" transform="translate(-12.35 -19.22)"/><path class="cls-1" d="M1433,281.58c23.46-30.21,72.65-85.14,114.33-133.87h85.07l-108.75,116,119.8,187.88h-83.89L1474.2,310.79,1433,350.62V451.57h-73.48V19.22H1433Z" transform="translate(-12.35 -19.22)"/><path class="cls-1" d="M1934.68,299.05c0,90.45-53.39,159.61-148.51,159.61-91.82,0-146-67.27-146-158.19,0-92.41,55-159.85,149.81-159.85C1877.69,140.62,1934.68,203.76,1934.68,299.05Zm-219.7.59c0,61.23,27.88,100.57,73.14,100.57,46,0,71.72-38.52,71.72-100.16,0-65.19-25.94-101-72.9-101C1741.93,199.07,1715,233.68,1715,299.64Z" transform="translate(-12.35 -19.22)"/><path class="cls-2" d="M2243.13,355.14c-11.29,51.19-46.82,103.52-132.91,103.52-90.89,0-140.59-63.68-140.59-157,0-88.44,52.68-161,144.55-161,97.45,0,126.53,69.78,129,105.77h-72c-6-26.83-21.8-47.32-58.37-47.32-43.6,0-68.29,37.87-68.29,100.16,0,66.2,25.23,101.39,67.4,101.39,32,0,49.69-18.14,58.84-45.48Z" transform="translate(-12.35 -19.22)"/><path class="cls-2" d="M2335.41,147.71c33,110.09,59,201.07,66.11,238.07h.59c8.16-44.66,38.78-136.06,71.67-238.07h73.6L2438.56,451.57h-78.15l-104-303.86Z" transform="translate(-12.35 -19.22)"/></svg>